# xmcd
#
# Track frame offsets:
#	150
#	14425
#	26529
#	39143
#	53621
#	67892
#	88468
#	97841
#	109037
#	122270
#	137321
#	157338
#	170483
#	187624
#	199992
#	209631
#
# Disc length: 3123 seconds
#
# Revision: 0
# Processed by: cddbd v1.5.2PL0 Copyright (c) Steve Scherf et al.
# Submitted via: audiograbber 1.83.01
#
DISCID=cb0c3110
DTITLE=Various Artist - Rock ´n´ Roll Christmas
DYEAR=2009
DGENRE=Christmas
TTITLE0=Leonardo - Do They Know It´s Christmas
TTITLE1=Rockabilly Allstars - Susy Snowflake
TTITLE2=Billy Rock and The Snowcats - God Rest Ye Merry Gentleman
TTITLE3=The Rockabilly Christmas Gentlemen - I Saw Mom Kissing Santa Claus
TTITLE4=Billy Rock and The Snowcats - Happy Christmas
TTITLE5=Leonaro - Mary´s Boy Child - Oh My Lord
TTITLE6=The Raggae Connection - Here Comes Santa Claus
TTITLE7=Billy Rock and The Snowcats - We Wish You A Merry Christmas
TTITLE8=Rockabilly Allstars - Have Yourself A Merry Little Christmas
TTITLE9=Billy Rock and The Snowcats - Merry Christmas Baby
TTITLE10=Leonardo - Mistletoe Ans Wine
TTITLE11=The Rockabilly Christmas Gentlemen - Little Town Of Bethlehem
TTITLE12=The Raggae Connection - Sleigh Ride
TTITLE13=Rockabilly Allstars - What Child Is This
TTITLE14=Billy Rock and The Snowcats - The First Noel
TTITLE15=Leonardo - A Spaceman Came Travelling
EXTD=
EXTT0=
EXTT1=
EXTT2=
EXTT3=
EXTT4=
EXTT5=
EXTT6=
EXTT7=
EXTT8=
EXTT9=
EXTT10=
EXTT11=
EXTT12=
EXTT13=
EXTT14=
EXTT15=
PLAYORDER=
